<svg width="1238" height="308" viewBox="0 0 1238 308" fill="none" xmlns="http://www.w3.org/2000/svg">
<g clip-path="url(#clip0)">
<path d="M456.025 0.768799H399.16V307.213H586.536V257.493H456.025V0.768799Z" fill="#101010"/>
<path d="M747.363 0.768799H690.498V307.232H877.884V257.512H747.363V0.768799Z" fill="#101010"/>
<path d="M234.279 0.768799L117.109 206.615V0.778139H60.207V307.213H117.09L174.281 208.157L230.055 307.222L293.959 307.232L293.95 307.222H293.959L205.534 154L293.959 0.778139L234.279 0.768799Z" fill="#101010"/>
<path d="M1208 307.222L1135.08 180.863C1172.37 167.095 1198.69 133.46 1198.69 94.1458C1198.69 45.575 1156.74 0.740479 1097.49 0.740479H981.816V307.231H1038.69V188.028L1078.78 187.981L1146.59 307.222H1208ZM1038.69 45.5564H1089.97C1119.05 45.5564 1142.63 67.3105 1142.63 94.1271C1142.63 119.216 1119.03 142.605 1093.45 142.605L1093.29 142.717H1038.69V45.5564Z" fill="#101010"/>
</g>
<defs>
<clipPath id="clip0">
<rect width="1237.79" height="306.463" fill="white" transform="translate(0.208008 0.768555)"/>
</clipPath>
</defs>
</svg>
